<svg id="Layer_1" data-name="Layer 1" xmlns="http://www.w3.org/2000/svg" viewBox="0 0 253.68 39.98"><defs><style>.cls-1,.cls-4,.cls-5,.cls-6{fill:none;stroke-miterlimit:10;}.cls-1,.cls-6{stroke:#2c2c51;}.cls-2{font-size:15.58px;font-family:Poppins-Regular, Poppins;}.cls-2,.cls-3{fill:#2c2c51;}.cls-4{stroke:#0e79de;}.cls-4,.cls-5{stroke-width:0.75px;}.cls-5{stroke:#fff;}.cls-6{stroke-width:1.4px;}</style></defs><title>3</title><path class="cls-1" d="M401.75,167.15v35a2,2,0,0,1-2,2H151.08a2,2,0,0,1-2-2v-35a2,2,0,0,1,2-2H399.74A2,2,0,0,1,401.75,167.15Z" transform="translate(-148.57 -164.65)"/><text class="cls-2" transform="translate(58.59 25.01)">Verify with Trust Swiftly</text><rect class="cls-3" x="41.44" y="0.5" width="1.01" height="38.98"/><path class="cls-4" d="M169.53,199.79c-14-7.67-14.23-23.7-14.23-24.38v-.53l.38-.37c4-3.92,11.87-4.22,14.16-4.22h.57c2.3,0,10.11.3,14.16,4.22l.38.37v.53c0,.68-.21,16.71-14.22,24.38l-.6.33Z" transform="translate(-148.57 -164.65)"/><path class="cls-5" d="M170.13,199.09c13.92-7.62,14-24,14-24-4.37-4.22-14-4-14-4s-9.61-.24-14,4C156.15,175.12,156.2,191.47,170.13,199.09Z" transform="translate(-148.57 -164.65)"/><path class="cls-4" d="M170.13,196.32c-9.65-5.92-11.23-16.79-11.49-20,2.73-2,7.62-2.72,11.2-2.72h.57c3.58,0,8.47.72,11.2,2.72C181.34,179.53,179.72,190.42,170.13,196.32Z" transform="translate(-148.57 -164.65)"/><polyline class="cls-6" points="18.58 18.88 21.05 21.35 26.36 16.04"/></svg>