<svg id="Layer_1" data-name="Layer 1" xmlns="http://www.w3.org/2000/svg" viewBox="0 0 253.49 40.29"><defs><style>.cls-1,.cls-4,.cls-5,.cls-6{fill:none;stroke-miterlimit:10;}.cls-1,.cls-6{stroke:#2c2c51;}.cls-2{font-size:15.58px;font-family:Poppins-Regular, Poppins;}.cls-2,.cls-3{fill:#2c2c51;}.cls-4{stroke:#0e79de;}.cls-4,.cls-5{stroke-width:0.75px;}.cls-5{stroke:#fff;}.cls-6{stroke-width:1.4px;}</style></defs><title>4</title><rect class="cls-1" x="0.5" y="0.5" width="252.49" height="39.29" rx="19.64"/><text class="cls-2" transform="translate(58.59 25.41)">Verify with Trust Swiftly</text><rect class="cls-3" x="41.44" y="0.5" width="1.01" height="39.31"/><path class="cls-4" d="M171.71,200c-14-7.66-14.22-23.7-14.22-24.38v-.53l.38-.37c4-3.91,11.86-4.22,14.16-4.22h.57c2.29,0,10.11.31,14.16,4.22l.38.37v.53c0,.68-.21,16.72-14.23,24.38l-.6.33Z" transform="translate(-148.67 -164.5)"/><path class="cls-5" d="M172.31,199.27c13.93-7.62,14-24,14-24-4.37-4.22-14-4-14-4s-9.6-.25-14,4C158.34,175.3,158.39,191.65,172.31,199.27Z" transform="translate(-148.67 -164.5)"/><path class="cls-4" d="M172.31,196.5c-9.64-5.92-11.22-16.79-11.48-20,2.72-2,7.61-2.72,11.2-2.72h.57c3.58,0,8.47.73,11.2,2.72C183.53,179.71,181.91,190.6,172.31,196.5Z" transform="translate(-148.67 -164.5)"/><polyline class="cls-6" points="20.37 19.21 22.84 21.68 28.15 16.38"/></svg>