<svg id="Layer_1" data-name="Layer 1" xmlns="http://www.w3.org/2000/svg" viewBox="0 0 252.49 39.34"><defs><style>.cls-1{fill:#f7f7f7;}.cls-2{font-size:15.58px;fill:#2c2c51;font-family:Poppins-Regular, Poppins;}.cls-3{fill:#fff;}.cls-4,.cls-5,.cls-6{fill:none;stroke-miterlimit:10;}.cls-4{stroke:#0e79de;}.cls-4,.cls-5{stroke-width:0.75px;}.cls-5{stroke:#fff;}.cls-6{stroke:#2c2c51;stroke-width:1.4px;}</style></defs><title>6</title><rect class="cls-1" y="0.06" width="252.49" height="39.29" rx="19.64"/><text class="cls-2" transform="translate(58.09 24.51)">Verify with Trust Swiftly</text><rect class="cls-3" x="40.94" width="0.67" height="38.98"/><path class="cls-4" d="M171.71,199.44c-14-7.66-14.22-23.69-14.22-24.37v-.54l.38-.37c4-3.91,11.86-4.22,14.16-4.22h.57c2.29,0,10.11.31,14.16,4.22l.38.37v.54c0,.68-.21,16.71-14.23,24.37l-.6.33Z" transform="translate(-149.17 -164.97)"/><path class="cls-5" d="M172.31,198.74c13.93-7.61,14-24,14-24-4.37-4.23-14-4-14-4s-9.6-.25-14,4C158.34,174.78,158.39,191.13,172.31,198.74Z" transform="translate(-149.17 -164.97)"/><path class="cls-4" d="M172.31,196c-9.64-5.93-11.22-16.79-11.48-20,2.72-2,7.61-2.71,11.2-2.71h.57c3.58,0,8.47.72,11.2,2.71C183.53,179.18,181.91,190.07,172.31,196Z" transform="translate(-149.17 -164.97)"/><polyline class="cls-6" points="19.87 18.29 22.34 20.76 27.65 15.46"/></svg>