<svg id="Layer_1" data-name="Layer 1" xmlns="http://www.w3.org/2000/svg" viewBox="0 0 252.49 39.3"><defs><style>.cls-1{fill:#0e79de;}.cls-2{font-size:15.58px;font-family:Poppins-Regular, Poppins;}.cls-2,.cls-3{fill:#fff;}.cls-4,.cls-5{fill:none;stroke-miterlimit:10;}.cls-4{stroke:#fff;stroke-width:0.75px;}.cls-5{stroke:#0e79de;stroke-linecap:square;stroke-width:1.4px;}</style></defs><title>2</title><rect class="cls-1" width="252.49" height="39.29" rx="19.64"/><text class="cls-2" transform="translate(56.03 24.84)">Verify with Trust Swiftly</text><rect class="cls-3" x="42.55" y="0.32" width="0.67" height="38.98"/><path class="cls-1" d="M171.71,201.39c-14-7.66-14.22-23.7-14.22-24.37v-.54l.38-.37c4-3.91,11.86-4.22,14.16-4.22h.57c2.29,0,10.11.31,14.16,4.22l.38.37V177c0,.67-.21,16.71-14.23,24.37l-.6.33Z" transform="translate(-149.17 -164.99)"/><path class="cls-4" d="M172.31,200.69c13.93-7.62,14-24,14-24-4.37-4.22-14-4-14-4s-9.6-.25-14,4C158.34,176.72,158.39,193.07,172.31,200.69Z" transform="translate(-149.17 -164.99)"/><path class="cls-3" d="M172.31,197.93c-9.64-5.93-11.22-16.8-11.48-20,2.72-2,7.61-2.71,11.2-2.71h.57c3.58,0,8.47.72,11.2,2.71C183.53,181.13,181.91,192,172.31,197.93Z" transform="translate(-149.17 -164.99)"/><polyline class="cls-5" points="19.64 20.66 22.11 23.13 27.42 17.82"/></svg>