<svg id="Layer_1" data-name="Layer 1" xmlns="http://www.w3.org/2000/svg" viewBox="0 0 252.68 38.98"><defs><style>.cls-1{fill:#0e79de;}.cls-2{font-size:15.58px;font-family:Poppins-Regular, Poppins;}.cls-2,.cls-3{fill:#fff;}.cls-4,.cls-5{fill:none;stroke-miterlimit:10;}.cls-4{stroke:#fff;stroke-width:0.75px;}.cls-5{stroke:#0e79de;stroke-linecap:square;stroke-width:1.4px;}</style></defs><title>1</title><path class="cls-1" d="M401.75,167.15v35a2,2,0,0,1-2,2H151.08a2,2,0,0,1-2-2v-35a2,2,0,0,1,2-2H399.74A2,2,0,0,1,401.75,167.15Z" transform="translate(-149.07 -165.15)"/><text class="cls-2" transform="translate(58.09 24.51)">Verify with Trust Swiftly</text><rect class="cls-3" x="40.94" width="0.67" height="38.98"/><path class="cls-1" d="M169.53,201.23c-14-7.67-14.23-23.7-14.23-24.38v-.53l.38-.37c4-3.91,11.87-4.22,14.16-4.22h.57c2.3,0,10.11.31,14.16,4.22l.38.37v.53c0,.68-.21,16.71-14.22,24.38l-.6.33Z" transform="translate(-149.07 -165.15)"/><path class="cls-4" d="M170.13,200.53c13.92-7.62,14-24,14-24-4.37-4.22-14-4-14-4s-9.61-.24-14,4C156.15,176.56,156.2,192.91,170.13,200.53Z" transform="translate(-149.07 -165.15)"/><path class="cls-3" d="M170.13,197.76c-9.65-5.92-11.23-16.79-11.49-20,2.73-2,7.62-2.72,11.2-2.72h.57c3.58,0,8.47.73,11.2,2.72C181.34,181,179.72,191.86,170.13,197.76Z" transform="translate(-149.07 -165.15)"/><polyline class="cls-5" points="17.85 20.33 20.32 22.8 25.63 17.5"/></svg>